<svg xmlns="http://www.w3.org/2000/svg" viewBox="-75.2 -802.2 979.5 979.5">
  <!-- ÆRIOUS · Favicon. Heavier so the hairlines survive 16px.
       Cormorant Garamond (Catharsis Fonts), SIL Open Font License 1.1 — wght 600.
       Converted to outlines: renders anywhere with no font file. -->
  <path d="M-3.69970703125 0.0Q-7.69970703125 0.0 -7.69970703125 -6.0Q-7.69970703125 -12.0 -3.69970703125 -12.0Q34.7249755859375 -12.0 70.46258544921875 -40.51263427734375Q106.2001953125 -69.0252685546875 148.10009765625 -132.0L441.3255615234375 -574.0Q460.3255615234375 -600.0 449.8255615234375 -606.5Q439.3255615234375 -613.0 377.3255615234375 -613.0Q374.6005859375 -613.0 374.6005859375 -619.0Q374.6005859375 -625.0 377.3255615234375 -625.0H794.6744384765625Q804.3994140625 -625.0 804.3994140625 -616.0L806.3994140625 -486.30029296875Q806.3994140625 -484.0252685546875 800.8994140625 -483.30029296875Q795.3994140625 -482.5753173828125 794.6744384765625 -485.5753173828125Q790.3245849609375 -510.6005859375 772.3872680664062 -536.6880493164062Q754.449951171875 -562.7755126953125 726.2876586914062 -580.7628784179688Q698.1253662109375 -598.750244140625 664.050537109375 -598.750244140625H617.650146484375Q593.9747314453125 -598.750244140625 579.4620971679688 -593.5252685546875Q564.949462890625 -588.30029296875 558.8119506835938 -575.8877563476562Q552.6744384765625 -563.4752197265625 552.6744384765625 -543.0V-85.0Q552.6744384765625 -63.5247802734375 558.0869750976562 -50.61224365234375Q563.49951171875 -37.69970703125 575.8372192382812 -31.61224365234375Q588.1749267578125 -25.5247802734375 609.6754150390625 -25.5247802734375H663.851318359375Q698.8260498046875 -25.5247802734375 732.2881469726562 -42.9747314453125Q765.750244140625 -60.4246826171875 790.89990234375 -90.01214599609375Q816.049560546875 -119.599609375 825.3994140625 -155.4246826171875Q826.1243896484375 -158.4246826171875 831.3994140625 -157.19970703125Q836.6744384765625 -155.9747314453125 836.6744384765625 -153.69970703125Q833.3994140625 -125.5247802734375 830.5369262695312 -86.849853515625Q827.6744384765625 -48.1749267578125 827.6744384765625 -15.0Q827.6744384765625 0.0 812.3994140625 0.0H385.30029296875Q383.30029296875 0.0 383.30029296875 -6.0Q383.30029296875 -12.0 385.30029296875 -12.0Q418.2254638671875 -12.0 434.3255615234375 -17.0Q450.4256591796875 -22.0 456.20068359375 -37.0Q461.9757080078125 -52.0 461.9757080078125 -81.0V-588.7249755859375L494.1253662109375 -604.0L187.6744384765625 -133.8746337890625Q150.5743408203125 -76.149658203125 163.29931640625 -44.0748291015625Q176.0242919921875 -12.0 235.6744384765625 -12.0Q240.6744384765625 -12.0 240.6744384765625 -6.0Q240.6744384765625 0.0 235.6744384765625 0.0Q201.3245849609375 0.0 173.4246826171875 -2.0Q145.5247802734375 -4.0 101.0 -4.0Q66.8250732421875 -4.0 46.01263427734375 -2.0Q25.2001953125 0.0 -3.69970703125 0.0ZM290.0 -312.3751220703125 305.0 -337.89990234375H528.3994140625L535.3994140625 -312.3751220703125ZM756.3994140625 -226.30029296875Q756.3994140625 -268.400390625 728.3372192382812 -290.38775634765625Q700.2750244140625 -312.3751220703125 644.30029296875 -312.3751220703125H489.9757080078125V-337.89990234375H645.850341796875Q701.2750244140625 -337.89990234375 727.9747314453125 -357.0247802734375Q754.6744384765625 -376.149658203125 754.6744384765625 -411.9747314453125Q754.6744384765625 -414.69970703125 760.6744384765625 -414.69970703125Q766.6744384765625 -414.69970703125 766.6744384765625 -411.9747314453125Q766.6744384765625 -380.0748291015625 766.1744384765625 -362.26239013671875Q765.6744384765625 -344.449951171875 765.6744384765625 -325.0Q765.6744384765625 -300.8250732421875 766.6744384765625 -277.51263427734375Q767.6744384765625 -254.2001953125 767.6744384765625 -226.30029296875Q767.6744384765625 -224.30029296875 762.0369262695312 -224.30029296875Q756.3994140625 -224.30029296875 756.3994140625 -226.30029296875Z" fill="#121212"/>
  <style>@media (prefers-color-scheme: dark) { path { fill: #fafafa } }</style>
</svg>
